<?xml version="1.0" encoding="utf-8"?>
<svg
	 xmlns="http://www.w3.org/2000/svg" version="1.2" baseProfile="tiny"
	 width="551.505" height="204.629" viewBox="0 0 551.505 204.629" overflow="visible" enable-background="new 0 0 551.505 204.629"
	 xml:space="preserve">
	<title>Valid HTML5 Logo</title>
				<g id="Layer_1">
					<g>
						<rect y="13.449" fill="#CCCCCC" width="517.521" height="173.802"/> 
					</g>
					<g>
						<rect x="5.34" y="20.246" fill="#FFFFFF" width="510.724" height="167.005"/> 
					</g>
					<g>
						<rect x="222.35" y="20.731" fill="#b3cee1" width="293.229" height="167.006"/> 
					</g>
					<g id="g2295">
						<g id="g2297">
							<g id="g2299">
								<path id="path2301" fill="#221B0A" d="M207.895,56.324l2.132,12.953l-7.542,14.435c0,0-2.894-6.119-7.709-9.51
									c-4.05-2.858-6.689-3.477-10.818-2.626c-5.311,1.095-11.323,7.438-13.942,15..255c-3.143,9.35-3.167,13.879-3.283,18.041
									c-0.178,6.667,0.88,10.609,0.88,10.609s-4.58-8.474-4.537-20.89c0.026-8.854,1.421-16.891,5.519-24.818
									c3.605-6.97,8.96-11.153,13.72-11.639c4.915-0.519,8.809,1.853,11.809,4.422c3.15,2.693,6.345,8.584,6.345,8.584
									L207.895,56.324z"/>
								<path id="path2303" fill="#221B0A" d="M208.826,129.637c0,0-3.334,5.958-5.408,8.259c-2.075,2.291-5.791,6.335-10.391,8.36
									c-4.589,2.022-6.993,2.404-11.536,1.966c-4.532-0.438-8.741-3.058-10.217-4.16c-1.482-1.09-5.257-4.317-7.377-7.312
									c-2.142-3.012-5.469-9.028-5.469-9.028s1.853,6.027,3.015,8.583c0.663,1.472,2.729,5.97,5.647,9.894
									c2.713,3.656,8.014,9.95,16.048,11.366c8.037,1.425,13.555-2.181,14.924-3.057c1.362-0.878,4.243-3.285,6.066-5.234
									c1.909-2.038,3.702-4.642,4.698-6.192c0.738-1.139,1.92-3.44,1.92-3.44L208.826,129.637z"/>
							</g>
							<g id="g2305">
								<polygon id="path2307" fill="#005A9C" points="70.064,56.899 88.236,118.669 106.405,56.899 119.555,56.899 89.487,158.386 
									88.234,158.386 69.438,95.493 50.644,158.386 49.388,158.386 19.321,56.899 32.475,56.899 50.644,118.669 62.923,77.07 
									56.906,56.899 "/>
								<path id="path2309" fill="#005A9C" d="M156.913,125.805c0,9.191-2.444,16.922-7.331,23.185
									c-4.884,6.263-11.212,9.397-18.981,9.397c-5.844,0-10.942-1.866-15.283-5.576c-4.347-3.723-7.565-8.756-9.653-15.095
									l10.277-4.261c1.504,3.843,3.491,6.871,5.951,9.082c2.461,2.208,5.361,3.317,8.708,3.317c3.508,0,6.476-1.965,8.9-5.883
									c2.423-3.924,3.633-8.651,3.633-14.166c0-6.096-1.299-10.809-3.892-14.155c-3.001-3.922-7.723-5.891-14.159-5.891h-5.008
									v-6.011l17.541-30.323h-21.181l-5.888,10.018h-3.746V56.899h48.858v6.133l-18.542,31.959
									c6.507,2.079,11.443,5.887,14.783,11.399C155.243,111.906,156.913,118.374,156.913,125.805z"/>
							</g>
						</g>
						<g id="g2311">
							<g id="g2313">
								<path fill="#221B0A" d="M219.022,48.461c3.752,0,6.753,3.061,6.753,6.813c0,3.815-3.001,6.844-6.791,6.844
									c-3.75,0-6.806-3.027-6.806-6.844c0-3.752,3.056-6.813,6.806-6.813H219.022L219.022,48.461z M218.964,49.819
									c-2.851,0-5.151,2.457-5.151,5.482c0,3.066,2.301,5.452,5.172,5.452c2.881,0..03,5.214-2.388,5.214-5.452
									c0-3.024-2.335-5.482-5.214-5.482H218.964z M217.811,59.246h-1.614v-7.576c0.61-0.087,1.282-0.21,2.431-0.21
									c1.298,0,2.092,0.21,2.596,0.604c0.431,0.329,0.671,0.847,0.671,1.637c0,0.91-0.631,1.544-1.454,1.757v0.056
									c0.674,0.126,1.092,0.73,1.214,1.854c0.15,1.179,0.307,1.634,0.422,1.879h-1..666c-0.176-0.279-0.299-0.947-0.455-1.97
									c-0.117-0.824-0.604-1.151-1.421-1.151h-0.725V59.246L217.811,59.246z M217.811,54.88h0.75c0.944,0,1.675-0.302,1.675-1.089
									c0-0.634-0.458-1.119-1.547-1.119c-0.399,0-0.671,0-0.878,0.026V54.88z"/>
							</g>
						</g>
					</g>
					
						<flowRoot  id="flowRoot2386" style="font-size:20.39611435px;font-style:normal;font-variant:normal;font-weight:normal;font-stretch:normal;text-align:start;line-height:100%;writing-mode:lr-tb;text-anchor:start;font-family:Bitstream Vera Sans" xml:space="preserve" transform="matrix(0.8688201,0,0,1,-16.08674,9.7304075)">
						<flowRegion  id="flowRegion2388">
							
								<rect  x="-24.51586" y="276.34555" width="295.27335" height="119.245" id="rect2390" style="font-size:20.39611435px;font-style:normal;font-variant:normal;font-weight:normal;font-stretch:normal;text-align:start;line-height:100%;writing-mode:lr-tb;text-anchor:start;font-family:Bitstream Vera Sans">
								</rect>
						</flowRegion>
						
							<flowPara  id="flowPara2422" style="font-size:22px;font-style:normal;font-variant:normal;font-weight:bold;font-stretch:normal;text-align:center;line-height:100%;writing-mode:lr-tb;text-anchor:middle;fill:#3771c8;font-family:Bitstream Vera Sans">
							Open Your Data</flowPara>
						
							<flowPara  id="flowPara2424" style="font-size:28px;font-style:oblique;font-variant:normal;font-weight:bold;font-stretch:normal;text-align:center;line-height:100%;writing-mode:lr-tb;text-anchor:middle;fill:#3771c8;font-family:Bitstream Vera Sans">
							Lock Your Images</flowPara>
					</flowRoot>
					<g>
						<rect x="5.34" y="181.425" fill="#4F4F4F" width="510.239" height="5.825"/> 
					</g>
					<g>
						<g>
							<rect x="222.35" y="176.571" fill="#B39F67" width="293.715" height="5.825"/> 
						</g>
						<g>
							<rect x="5.34" y="176.571" fill="#B4B4B4" width="217.009" height="5.825"/> 
						</g>
					</g>
					<g>
						<polygon fill="#E44D26" points="277.795,191.098 257.909,45.275 401.367,38.584 395.125,185.602 337.138,204.629 "/>
						<polygon fill="#F16529" points="336.645,192.174 383.5,176.801 388.835,51.168 330.196,53.903 "/>
						<polygon fill="#EBEBEB" points="332.729,108.213 308.964,109.322 306.465,91.006 331.87,89.821 331.032,71.862 
							330.973,71.865 286.001,73.962 286.656,78.76 293.376,128.046 333.566,126.172 "/>
						<polygon fill="#EBEBEB" points="334.903,154.852 334.826,154.878 314.574,150.411 312.627,136.146 302.908,136.599 
							294.599,136.987 298.43,165.07 335.693,173.567 335.775,173.54 "/>
						<polygon points="269.401,4.859 278.528,4.433 278.949,13.45 287.298,13.061 286.877,4.043 296.004,3.619 297.277,30.925 
							288.151,31.35 287.724,22.207 279.375,22.596 279.802,31.74 270.675,32.165 269.401,4.859 "/>
						<polygon points="308.428,12.113 300.393,12.487 299.97,3.433 325.171,2.258 325.594,11.312 317.555,11.687 318.405,29.939 
							309.278,30.365 308.428,12.113 "/>
						<polygon points="329.17,2.071 338.687,1.627 344.988,10.949 350.388,1.082 359.908,0.638 361.183,27.944 352.092,28.368 
							351.461,14.833 345.635,24.834 345.479,24.842 338.742,15.427 339.373,28.961 330.443,29.378 "/>
						<polygon points="364.451,0.426 373.581,0 374.434,18.281 387.27,17.682 387.69,26.708 365.726,27.732 "/>
						<polygon fill="#FFFFFF" points="332.666,108.216 333.504,126.175 355.62,125.144 354.621,148.531 334.843,154.872 
							335.714,173.556 372.059,161.636 372.184,158.587 374.199,111.111 374.413,106.27 369.573,106.496 "/>
						<polygon fill="#FFFFFF" points="330.973,71.865 331.492,83.02 331.808,89.781 331.81,89.824 375.131,87.804 375.131,87.804 
							375.189,87.801 375.36,83.749 375.756,74.604 375.961,69.767 "/>
					</g>
					<g>
						<rect x="510.725" y="20.246" fill="#4F4F4F" width="5.826" height="165.401"/> 
					</g>
					<g>
						<rect x="504.898" y="20.731" fill="#B39F67" width="5.826" height="160.694"/> 
					</g>
					<g>
						<polygon fill="#980F08" points="402.462,115.4 425.766,92.097 454.409,120.74 528.202,46.947 551.505,70.25 456.352,165.405 
							"/>
					</g>
					<g>
						<polygon fill="#840B08" points="410.389,107.594 425.28,93.068 453.924,121.711 527.717,47.918 538.843,58.063 
							455.865,140.166 "/>
					</g>
				</g>
	</svg>

