<?xml version="1.0" encoding="utf-8"?>
<!-- Generator: Adobe Illustrator 17.0.0, SVG Export Plug-In . SVG Version: 6.00 Build 0)  -->
<!DOCTYPE svg PUBLIC "-//W3C//DTD SVG 1.1//EN" "http://www.w3.org/Graphics/SVG/1.1/DTD/svg11.dtd">
<svg version="1.1" id="Layer_1" xmlns="http://www.w3.org/2000/svg" xmlns:xlink="http://www.w3.org/1999/xlink" x="0px" y="0px"
	 width="352.25px" height="94.708px" viewBox="0 0 352.25 94.708" enable-background="new 0 0 352.25 94.708" xml:space="preserve">
<image display="none" overflow="visible" enable-background="new    " width="1920" height="1080" xlink:href="B84FE86A.jpeg"  transform="matrix(1 0 0 1 -397 -477.2924)">
</image>
<g>
	<g>
		<path fill="#FF9C00" d="M258.036,54.816c-18.563,0-37.014,0-55.663,0c0,0.702,0,1.358,0,2.014c0,11.308,0.002,22.616-0.006,33.924
			c0,0.558,0,1.144-0.159,1.668c-0.341,1.128-1.544,1.81-2.749,1.664c-1.15-0.139-2.103-1.051-2.149-2.25
			c-0.077-2.005-0.066-4.014-0.066-6.022c-0.002-11.026,0.007-22.052,0.005-33.078c0-2.162,0.988-3.174,3.14-3.174
			c29.381-0.001,58.762-0.001,88.144-0.003c2.468,0,3.417,0.919,3.417,3.354c0.002,12.647,0.001,25.294,0,37.942
			c0,0.282,0.009,0.566-0.023,0.844c-0.173,1.487-1.279,2.459-2.71,2.394c-1.365-0.063-2.407-1.106-2.448-2.553
			c-0.044-1.544-0.01-3.09-0.01-4.702c-0.354-0.043-0.623-0.104-0.892-0.104c-6.975-0.006-13.95-0.018-20.926,0.001
			c-1.871,0.005-1.646-0.218-1.687,1.729c-0.02,0.951,0.009,1.902,0.002,2.854c-0.013,1.631-1.061,2.778-2.533,2.788
			c-1.495,0.01-2.573-1.066-2.583-2.726c-0.032-5.354-0.025-10.709-0.026-16.063c-0.001-6.482,0.007-12.963,0.006-19.445
			C258.119,55.56,258.071,55.248,258.036,54.816z M286.701,54.828c-7.852,0-15.577,0-23.374,0c-0.03,0.36-0.077,0.666-0.077,0.973
			c-0.002,2.04,0.056,4.082-0.011,6.12c-0.031,0.957,0.3,1.171,1.205,1.167c7.035-0.034,14.07-0.018,21.106-0.022
			c0.373,0,0.745-0.038,1.151-0.06C286.701,60.231,286.701,57.571,286.701,54.828z M263.252,65.612c0,2.556,0.005,4.979-0.003,7.402
			c-0.003,0.721,0.493,0.631,0.951,0.631c7.221-0.002,14.443-0.001,21.664-0.006c0.268,0,0.536-0.053,0.793-0.08
			c0-2.694,0-5.311,0-7.946C278.858,65.612,271.152,65.612,263.252,65.612z M263.263,84.157c7.885,0,15.634,0,23.405,0
			c0-2.687,0-5.301,0-8.021c-0.499,0-0.914,0-1.328,0c-4.221,0-8.442,0-12.663,0c-2.814,0-5.628-0.016-8.442,0.022
			c-0.326,0.004-0.926,0.306-0.931,0.481C263.243,79.124,263.263,81.611,263.263,84.157z"/>
		<path fill="#FF9C00" d="M287.151,25.801c0.778,0,1.515-0.04,2.247,0.008c1.531,0.102,2.609,1.266,2.535,2.677
			c-0.074,1.397-1.177,2.411-2.678,2.412c-11.128,0.008-22.256,0.009-33.384,0.011c-2.289,0-4.578,0.001-6.867-0.009
			c-1.542-0.007-2.623-0.96-2.709-2.362c-0.091-1.486,0.866-2.623,2.446-2.738c1.217-0.088,2.446-0.018,3.785-0.018
			c0-0.526,0-0.904,0-1.283c-0.003-4.895-0.007-9.79-0.009-14.685c-0.001-1.531,0.406-1.938,1.931-1.936
			c0.81,0.002,1.625-0.045,2.429,0.026c0.902,0.079,1.261-0.19,1.21-1.158c-0.08-1.51-0.028-3.028-0.019-4.542
			c0.009-1.606,0.336-1.939,1.894-1.945c1.409-0.006,2.817-0.007,4.226,0c1.57,0.008,1.806,0.257,1.823,1.865
			c0.011,0.985,0.034,1.97,0.059,2.955c0.002,0.061,0.063,0.12,0.165,0.304c2.197,0,4.463,0,6.834,0
			c-0.189-0.664-0.375-1.363-0.586-2.055c-0.282-0.923,0.062-1.515,0.952-1.789c1.612-0.497,3.228-0.978,4.848-1.449
			c0.954-0.277,1.561,0.091,1.846,1.04c2.307,7.672,4.624,15.341,6.915,23.018C287.176,24.6,287.111,25.111,287.151,25.801z
			 M271.054,16.401c0-2.43-0.04-4.86,0.019-7.289c0.024-0.99-0.337-1.315-1.284-1.242c-0.805,0.062-1.62,0.048-2.428,0.01
			c-0.74-0.035-0.971,0.276-0.968,0.994c0.02,5.036,0.016,10.071-0.001,15.107c-0.002,0.62,0.174,0.903,0.836,0.876
			c0.914-0.037,1.834-0.052,2.745,0.013c0.837,0.06,1.106-0.252,1.093-1.075C271.029,21.331,271.054,18.866,271.054,16.401z
			 M281.583,24.83c0.68-0.202,1.174-0.401,1.687-0.491c0.915-0.162,1.05-0.56,0.777-1.451c-1.956-6.373-3.849-12.765-5.767-19.15
			c-0.087-0.288-0.223-0.562-0.365-0.914c-0.931,0.292-1.783,0.56-2.693,0.846C277.359,10.781,279.457,17.758,281.583,24.83z
			 M260.695,2.814c0,7.385,0,14.656,0,21.953c0.957,0,1.844,0,2.736,0c0-7.358,0-14.627,0-21.953
			C262.496,2.814,261.634,2.814,260.695,2.814z M279.2,25.694c-1.838-6.113-3.619-12.037-5.4-17.962
			c-0.06,0.013-0.12,0.027-0.18,0.04c0,5.959,0,11.918,0,17.923C275.454,25.694,277.229,25.694,279.2,25.694z M255.124,10.498
			c0,4.791,0,9.521,0,14.277c0.974,0,1.866,0,2.813,0c0.02-0.421,0.05-0.766,0.05-1.111c0-3.622,0-7.245-0.01-10.867
			C257.969,10.121,257.962,10.121,255.124,10.498z"/>
		<path fill="#FF9C00" d="M244.025,44.591c0,0.52,0.005,0.867-0.001,1.214c-0.02,1.324-0.301,1.62-1.627,1.624
			c-5.07,0.013-10.141,0.019-15.211,0.019c-6.444,0-12.888-0.051-19.331,0.009c-2.087,0.019-2.506-0.431-2.162-2.853
			c1.25,0,2.53,0,3.982,0c0-2.303,0-4.438,0-6.574c0-4.26-0.005-8.52,0.003-12.78c0.003-1.784,0.301-2.069,2.106-2.069
			c8.698-0.002,17.395-0.002,26.093-0.001c1.592,0,1.913,0.31,1.916,1.911c0.012,6.127,0.033,12.253,0,18.38
			c-0.005,0.888,0.253,1.189,1.127,1.135C241.896,44.544,242.878,44.591,244.025,44.591z M224.824,25.853c0-0.005,0-0.009,0-0.014
			c-3.84,0-7.68,0.023-11.52-0.017c-0.877-0.009-1.245,0.168-1.235,1.152c0.05,5.002,0.038,10.005,0.016,15.008
			c-0.003,0.721,0.202,0.994,0.955,0.992c7.821-0.024,15.642-0.029,23.463-0.011c0.718,0.002,0.897-0.263,0.895-0.928
			c-0.014-5.038-0.013-10.076,0.017-15.113c0.005-0.799-0.2-1.1-1.07-1.089C232.504,25.881,228.664,25.853,224.824,25.853z
			 M227.279,44.175c-1.503,0-3.002-0.016-4.499,0.02c-0.191,0.005-0.376,0.28-0.564,0.43c0.199,0.167,0.394,0.473,0.598,0.48
			c1.327,0.044,2.656,0.015,3.984,0.026C227.531,45.136,227.479,44.744,227.279,44.175z"/>
		<path fill="#FF9C00" d="M275.012,59.475c-0.95,0-1.899,0.016-2.849-0.005c-0.77-0.017-1.284-0.368-1.288-1.206
			c-0.004-0.823,0.502-1.256,1.254-1.273c1.933-0.044,3.869-0.044,5.802,0c0.767,0.017,1.262,0.515,1.245,1.297
			c-0.018,0.789-0.511,1.194-1.315,1.192c-0.95-0.003-1.899-0.001-2.849-0.001C275.012,59.477,275.012,59.476,275.012,59.475z"/>
		<path fill="#FF9C00" d="M274.964,70.084c-0.914,0-1.828,0.016-2.741-0.005c-0.754-0.017-1.304-0.33-1.342-1.167
			c-0.04-0.885,0.508-1.319,1.297-1.339c1.897-0.048,3.796-0.041,5.693-0.003c0.813,0.017,1.341,0.495,1.296,1.343
			c-0.042,0.796-0.571,1.157-1.356,1.155c-0.949-0.003-1.898-0.001-2.847-0.001C274.964,70.072,274.964,70.078,274.964,70.084z"/>
		<path fill="#FF9C00" d="M275.001,80.656c-0.949,0-1.899,0.022-2.848-0.007c-0.704-0.022-1.23-0.319-1.28-1.113
			c-0.051-0.821,0.418-1.334,1.161-1.357c2.002-0.063,4.008-0.061,6.01,0.01c0.76,0.027,1.2,0.605,1.124,1.389
			c-0.072,0.748-0.586,1.081-1.318,1.083c-0.95,0.003-1.9,0.001-2.849,0.001C275.001,80.66,275.001,80.658,275.001,80.656z"/>
	</g>
	<g>
		<path fill="#FF9C00" d="M115.54,94.708c-0.02-0.03-0.04-0.06-0.06-0.1c-0.18-0.3-0.36-0.6-0.55-0.9c-0.4-0.67-0.8-1.33-1.21-2
			c-1.36-2.25-2.9-4.51-4.26-6.76c-1.01-1.66-1.46-3.32-3.46-4.93v1.77c0,3.31,0,6.61,0,9.92v2v0.11c0,0.37,0.15,0.66,0.09,0.89
			h-3.93c-0.06-0.21-0.16-0.46-0.16-0.77v-0.23c0-0.66-0.01-1.33,0.01-2c-0.03-2.44-0.01-4.88-0.01-7.33v-3.76
			c0-0.02-0.06-0.04-0.14-0.06c-0.17,0.26-0.32,0.52-0.49,0.79c-2.1,3.46-4.17,6.91-6.26,10.36c-0.41,0.67-0.8,1.33-1.21,2
			c-0.14,0.24-0.29,0.49-0.44,0.73c-0.06,0.1-0.11,0.19-0.16,0.27h-3.02c-0.57-0.37-0.87-0.65-0.94-1
			c-0.08-0.33,0.08-0.73,0.44-1.32c0.14-0.23,0.27-0.45,0.41-0.68c1.73-2.85,3.46-5.71,5.18-8.55c1.28-2.11,2.56-4.35,3.84-6.46
			c0.13-0.23,0.23,0.01,0.43-0.99H71.07c0.51-1,0.88-2.56,1.4-3.74c0.11-0.26,0.7-0.39,1.07-0.39c6.1-0.03,12.2,0.02,18.3,0.02
			c17.82,0,35.65,0.01,53.47,0c3.27,0,5.65-2.35,5.65-5.63c0.01-13.78,0.01-27.55,0.01-41.32c0-1.82-0.02-3.64,0-5.45
			c0.04-4.28-2.1-6.47-6.41-6.47c-11.69-0.01-23.38,0-35.07,0c-15.52,0-31.05,0.01-46.58,0c-3.69,0-5.97,2.28-5.97,5.93
			c0,15.26,0.05,30.51-0.04,45.76c-0.02,3.45,0.8,6.09,4.48,7.2c-0.52,1.34-1.01,2.61-1.53,3.96c-1.62-0.36-2.95-1.17-4.1-2.24
			c-2.17-2.03-3.15-4.56-3.15-7.54c0.03-10.14,0.01-20.29,0.01-30.44c0-5.55-0.02-11.1,0.01-16.65c0.04-6.17,4.08-10.27,10.24-10.28
			c15.91-0.04,31.81-0.01,47.72-0.01c11.48,0,22.96-0.01,34.44,0c6.01,0,10.24,4.17,10.25,10.2c0.02,15.8,0.02,31.6,0,47.4
			c-0.01,5.62-4.25,9.77-9.89,9.79c-11.59,0.05-23.17-0.1-34.76-0.1h-1.49c0.98,2,1.83,3.17,2.7,4.59
			c2.27,3.77,4.56,7.59,6.84,11.35c0.01,0.02,0.02,0.04,0.03,0.06c0.11,0.18,0.21,0.38,0.32,0.55c0.38,0.62,0.55,1.06,0.47,1.43
			c0,0.01,0,0.01-0.01,0.02c-0.07,0.34-0.37,0.64-0.91,0.99c0,0-0.01,0-0.01,0.01L115.54,94.708L115.54,94.708z"/>
		<path fill="#FF9C00" d="M80.331,36.206c-0.224,1.127-0.346,2.285-0.689,3.375c-2.692,8.55-5.326,17.12-8.177,25.617
			c-2.808,8.369-5.832,16.666-8.815,24.976c-0.323,0.9-0.854,1.836-1.55,2.467c-1.306,1.184-3.052,0.46-3.244-1.295
			c-0.082-0.753,0.015-1.599,0.283-2.307c6.137-16.229,12.166-32.502,19.234-48.361c0.529-1.186,1.155-2.33,1.77-3.476
			c0.218-0.406,0.538-0.757,0.811-1.133C80.081,36.114,80.206,36.16,80.331,36.206z"/>
	</g>
	<g>
		<line fill="none" x1="0" y1="93.708" x2="350" y2="93.708"/>
		<polygon fill="#FF9C00" points="119.56,94.708 350,94.708 350,93.708 350,91.708 119.7,91.708 114.72,91.708 107,91.708 
			103.01,91.708 96.11,91.708 91.19,91.708 62.88,91.708 58.93,91.708 0,91.708 0,93.708 0,94.708 91.28,94.708 94.3,94.708 
			103.16,94.708 107.09,94.708 116.54,94.708 		"/>
	</g>
</g>
<g>
	<path fill="#FF9C00" d="M94.39,41.27l9.119-4.236v2.014l-6.896,3.021v0.038l6.896,3.021v2.014l-9.119-4.236V41.27z"/>
	<path fill="#FF9C00" d="M104.916,47.9l4.065-13.773h1.919L106.834,47.9H104.916z"/>
	<path fill="#FF9C00" d="M121.122,42.961l-9.119,4.179v-2.014l7.048-3.021v-0.038l-7.048-3.021v-2.014l9.119,4.179V42.961z"/>
</g>
</svg>
